<svg height="56" viewBox="0 0 56 56" width="56" xmlns="http://www.w3.org/2000/svg"><path d="m48.1605 48.9342c.716.4839 1.6647.2903 2.226-.5033 3.5421-5.0716 5.6135-11.5949 5.6135-18.5054 0-6.9104-2.0904-13.4531-5.6135-18.5247-.5613-.7936-1.51-.9872-2.226-.4839-.7357.5033-.8519 1.4711-.2905 2.2841 3.1163 4.5877 5.0521 10.4722 5.0521 16.7245 0 6.2524-1.8775 12.2143-5.0521 16.7245-.5614.7937-.4452 1.7615.2905 2.2842zm-26.5193-1.3357c1.3163 0 2.2648-.9678 2.2648-2.2647v-30.8746c0-1.2969-.9485-2.3809-2.3035-2.3809-.9485 0-1.5873.4259-2.6132 1.3937l-8.5365 8.0719c-.1355.1162-.3097.1742-.5033.1742h-5.749c-2.7294 0-4.2005 1.4905-4.2005 4.3941v7.5105c0 2.9036 1.4711 4.3941 4.2005 4.3941h5.749c.1936 0 .3678.058.5033.1742l8.5365 8.1493c.9291.8711 1.7034 1.2582 2.6519 1.2582zm18.7183-3.9488c.7548.5033 1.6841.3097 2.226-.4646 2.555-3.5617 4.0262-8.3042 4.0262-13.2596 0-4.9747-1.4518-9.7172-4.0262-13.2789-.5613-.7549-1.4712-.9485-2.226-.4452-.7357.5033-.8519 1.4518-.2711 2.2841 2.1098 3.0971 3.4069 7.1621 3.4069 11.44s-1.2583 8.3817-3.4263 11.4401c-.542.8323-.4452 1.7808.2905 2.2841zm-7.7235-5.2264c.6581.4645 1.6066.3097 2.1679-.4452 1.51-2.0325 2.4199-5.0135 2.4199-8.0526 0-3.039-.9293-6.0006-2.4199-8.0719-.5613-.7549-1.4904-.9097-2.1679-.4452-.8517.5614-.9485 1.5486-.3291 2.4003 1.1227 1.5098 1.8002 3.8134 1.8002 6.1168 0 2.3035-.7162 4.607-1.8195 6.1362-.5808.8324-.4839 1.7809.3484 2.3616z"/></svg>